<svg xmlns="http://www.w3.org/2000/svg" width="1924.703" height="557.639" viewBox="0 0 1924.703 557.639">
  <g id="Path_2" data-name="Path 2" transform="translate(0 11.637)" fill="#585858">
    <path d="M 1918.489868164063 545.500732421875 L 0.500127911567688 540.7418212890625 L 0.500127911567688 44.75653457641602 C 0.5885289311408997 44.44272232055664 1.42523980140686 41.99360656738281 6.721080303192139 38.42912673950195 C 10.04441356658936 36.19245910644531 14.44274711608887 33.96531677246094 19.79346084594727 31.81007766723633 C 26.47155570983887 29.12031555175781 34.66060256958008 26.53555297851563 44.13322448730469 24.1274585723877 C 68.18988800048828 18.01174354553223 100.5803680419922 12.98317241668701 140.4053649902344 9.181267738342285 C 190.0908355712891 4.43769645690918 251.57275390625 1.599125266075134 323.1432189941406 0.7441252470016479 C 340.3958435058594 0.5379347205162048 357.7182312011719 0.4334109425544739 374.6294250488281 0.4334109425544739 C 439.5172729492188 0.4334109425544739 502.8077392578125 1.951030015945435 568.1174926757813 5.072934627532959 C 625.7058715820313 7.825553894042969 677.2984619140625 11.42626762390137 727.1927490234375 14.90841102600098 C 769.6798706054688 17.87364959716797 809.8110961914063 20.67436408996582 850.8743896484375 22.76698303222656 C 897.072265625 25.12126731872559 937.427490234375 26.21793556213379 977.8746337890625 26.21793556213379 C 987.2239379882813 26.21793556213379 996.6906127929688 26.1562671661377 1006.011291503906 26.03460121154785 C 1031.151123046875 25.70650672912598 1056.304443359375 24.97293472290039 1082.908447265625 23.79198265075684 C 1106.62060546875 22.73960113525391 1130.95849609375 21.35269737243652 1157.3125 19.55222129821777 C 1206.282470703125 16.20674514770508 1255.062255859375 11.89245891571045 1302.236083984375 7.720315933227539 C 1354.568481445313 3.091982364654541 1408.682739257813 -1.693969964981079 1463.780395507813 -5.233493804931641 C 1493.44970703125 -7.139684200286865 1520.988037109375 -8.539445877075195 1547.969116210938 -9.512779235839844 C 1578.268920898438 -10.60611248016357 1607.083740234375 -11.13754177093506 1636.059692382813 -11.13754177093506 C 1688.38232421875 -11.13754177093506 1736.1005859375 -9.187779426574707 1777.88916015625 -5.342541217803955 C 1811.322998046875 -2.265874862670898 1841.057983398438 2.024125337600708 1866.267700195313 7.408172607421875 C 1876.172485351563 9.523649215698242 1885.393676757813 11.81507778167725 1893.675659179688 14.21888732910156 C 1900.30126953125 16.14221954345703 1906.343994140625 18.14126777648926 1911.635620117188 20.16055297851563 C 1919.388916015625 23.11935424804688 1923.249633789063 25.26138305664063 1924.199584960938 25.81624221801758 L 1918.489868164063 545.500732421875 Z" stroke="none"/>
    <path d="M 1636.059692382813 -10.63751220703125 C 1607.089599609375 -10.63751220703125 1578.280883789063 -10.10614013671875 1547.9873046875 -9.01324462890625 C 1521.010864257813 -8.0399169921875 1493.47705078125 -6.640380859375 1463.8125 -4.73468017578125 C 1408.720581054688 -1.19537353515625 1354.609619140625 3.59033203125 1302.280151367188 8.2183837890625 C 1255.10400390625 12.39080810546875 1206.321533203125 16.705322265625 1157.346557617188 20.051025390625 C 1130.988525390625 21.85174560546875 1106.646728515625 23.2388916015625 1082.9306640625 24.29150390625 C 1056.3212890625 25.47268676757813 1031.162963867188 26.20626831054688 1006.018005371094 26.53460693359375 C 996.6986694335938 26.65628051757813 987.2299194335938 26.71792602539063 977.8746337890625 26.71792602539063 C 937.4189453125 26.71792602539063 897.0556640625 25.62127685546875 850.848876953125 23.26626586914063 C 809.7808837890625 21.17340087890625 769.6474609375 18.3724365234375 727.15771484375 15.4072265625 C 677.266357421875 11.92529296875 625.67626953125 8.3248291015625 568.09375 5.57220458984375 C 502.7919921875 2.4508056640625 439.5091552734375 0.93341064453125 374.62939453125 0.93341064453125 C 357.714599609375 0.93341064453125 340.3941650390625 1.0379638671875 323.149169921875 1.244140625 C 252.0968017578125 2.09295654296875 190.9805908203125 4.897216796875 141.4989013671875 9.579345703125 C 101.7603759765625 13.339599609375 69.369140625 18.3150634765625 45.22509765625 24.36746215820313 C 35.695556640625 26.75625610351563 27.43994140625 29.32150268554688 20.687255859375 31.99172973632813 C 15.26708984375 34.13507080078125 10.7972412109375 36.35079956054688 7.4022216796875 38.57675170898438 C 2.1517333984375 42.01968383789063 1.1434326171875 44.41018676757813 0.9998779296875 44.83157348632813 L 0.9998779296875 540.2430419921875 L 1917.995361328125 544.99951171875 L 1923.696166992188 26.10357666015625 C 1922.434814453125 25.3885498046875 1918.59033203125 23.34536743164063 1911.371337890625 20.5950927734375 C 1906.081298828125 18.57958984375 1900.041137695313 16.5843505859375 1893.41845703125 14.66510009765625 C 1885.140869140625 12.26605224609375 1875.924926757813 9.9791259765625 1866.02685546875 7.8681640625 C 1840.835327148438 2.49530029296875 1811.126098632813 -1.78564453125 1777.724365234375 -4.85540771484375 C 1735.980102539063 -8.69207763671875 1688.317260742188 -10.63751220703125 1636.059692382813 -10.63751220703125 M 1636.059692382813 -11.63751220703125 C 1865.73388671875 -11.63751220703125 1924.702514648438 25.53460693359375 1924.702514648438 25.53460693359375 L 1918.984375 546.001953125 L -0.0001220703125 541.2405395507813 L -0.0001220703125 44.69744873046875 C -0.0001220703125 44.69744873046875 7.1080322265625 4.01959228515625 323.1373291015625 0.244140625 C 340.805908203125 0.03302001953125 357.9774169921875 -0.0665283203125 374.62939453125 -0.0665283203125 C 642.9515380859375 -0.0665283203125 784.7972412109375 25.7178955078125 977.87451171875 25.7178955078125 C 987.135986328125 25.7178955078125 996.4880981445313 25.6588134765625 1006.0048828125 25.53460693359375 C 1226.23486328125 22.65985107421875 1406.385131835938 -11.63751220703125 1636.059692382813 -11.63751220703125 Z" stroke="none" fill="#707070"/>
  </g>
</svg>
